<svg width="132" height="24" viewBox="0 0 132 24" fill="none" xmlns="http://www.w3.org/2000/svg">
<path d="M115.213 12.7059C115.592 12.7059 115.9 12.3954 115.9 12.0123C115.9 11.6292 115.592 11.3186 115.213 11.3186C114.834 11.3186 114.526 11.6292 114.526 12.0123C114.526 12.3954 114.834 12.7059 115.213 12.7059Z" fill="#008CF5"/>
<path d="M18.7124 12.7805H15.0009C14.9847 13.8548 15.18 14.7827 15.587 15.564C15.9939 16.3454 16.5392 16.9884 17.2229 17.493C17.9229 17.9976 18.7205 18.3639 19.6158 18.5918C20.5274 18.836 21.4634 18.9581 22.4238 18.9581C23.6121 18.9581 24.6539 18.8197 25.5493 18.543C26.4608 18.2662 27.2178 17.8837 27.8201 17.3953C28.4386 16.8907 28.9026 16.2966 29.2119 15.6129C29.5211 14.9292 29.6758 14.1885 29.6758 13.3909C29.6758 12.4142 29.4642 11.6166 29.0409 10.998C28.634 10.3631 28.1456 9.8585 27.5759 9.4841C27.0062 9.1097 26.4283 8.84111 25.8423 8.67833C25.2725 8.49927 24.8249 8.37718 24.4993 8.31207C23.4087 8.03534 22.5215 7.80744 21.8378 7.62838C21.1704 7.44932 20.6414 7.27026 20.2507 7.0912C19.8763 6.91214 19.624 6.7168 19.4937 6.50518C19.3635 6.29357 19.2984 6.01684 19.2984 5.67499C19.2984 5.30059 19.3798 4.9913 19.5426 4.74713C19.7054 4.50296 19.9088 4.29948 20.153 4.1367C20.4135 3.97391 20.6983 3.85997 21.0076 3.79485C21.3169 3.72974 21.6262 3.69718 21.9355 3.69718C22.4075 3.69718 22.8389 3.73788 23.2296 3.81927C23.6366 3.90066 23.9947 4.03903 24.304 4.23437C24.6133 4.42971 24.8574 4.6983 25.0365 5.04014C25.2318 5.38198 25.3458 5.81336 25.3783 6.33426H29.0898C29.0898 5.32501 28.8944 4.4704 28.5038 3.77044C28.1294 3.05419 27.6166 2.46817 26.9655 2.01238C26.3143 1.55659 25.5655 1.23103 24.7191 1.03569C23.8889 0.82407 23.018 0.718262 22.1064 0.718262C21.325 0.718262 20.5437 0.82407 19.7623 1.03569C18.981 1.24731 18.281 1.57287 17.6624 2.01238C17.0439 2.4519 16.5392 3.00536 16.1486 3.67277C15.7742 4.3239 15.587 5.09711 15.587 5.99242C15.587 6.79005 15.7335 7.47374 16.0265 8.04348C16.3358 8.59694 16.7346 9.06087 17.2229 9.43527C17.7113 9.80967 18.2647 10.119 18.8833 10.3631C19.5019 10.591 20.1367 10.7864 20.7879 10.9491C21.4227 11.1282 22.0494 11.291 22.668 11.4375C23.2866 11.584 23.84 11.7549 24.3284 11.9503C24.8167 12.1456 25.2074 12.3898 25.5004 12.6828C25.8097 12.9758 25.9643 13.3583 25.9643 13.8304C25.9643 14.2699 25.8504 14.6362 25.6225 14.9292C25.3946 15.2059 25.1097 15.4257 24.7679 15.5885C24.4261 15.7512 24.0598 15.8652 23.6691 15.9303C23.2784 15.9791 22.9122 16.0035 22.5703 16.0035C22.0657 16.0035 21.5774 15.9466 21.1053 15.8326C20.6332 15.7024 20.2181 15.5152 19.86 15.271C19.5182 15.0106 19.2414 14.6769 19.0298 14.2699C18.8182 13.863 18.7124 13.3665 18.7124 12.7805ZM31.444 9.82595C31.4928 9.01203 31.6963 8.33649 32.0544 7.7993C32.4125 7.26212 32.8683 6.83075 33.4218 6.50518C33.9752 6.17962 34.5938 5.95172 35.2775 5.8215C35.9775 5.67499 36.6774 5.60174 37.3774 5.60174C38.0122 5.60174 38.6552 5.65057 39.3064 5.74824C39.9575 5.82964 40.5517 6.00056 41.0889 6.26101C41.6261 6.52146 42.0656 6.88772 42.4074 7.35979C42.7493 7.81558 42.9202 8.42602 42.9202 9.1911V15.7594C42.9202 16.3291 42.9527 16.8744 43.0179 17.3953C43.083 17.9162 43.1969 18.3069 43.3597 18.5674H39.8435C39.7784 18.372 39.7215 18.1767 39.6726 17.9814C39.6401 17.7697 39.6157 17.5581 39.5994 17.3465C39.0459 17.9162 38.3948 18.3151 37.646 18.543C36.8972 18.7709 36.1321 18.8848 35.3507 18.8848C34.7485 18.8848 34.1869 18.8115 33.6659 18.665C33.145 18.5185 32.6893 18.2906 32.2986 17.9814C31.9079 17.6721 31.5986 17.2814 31.3707 16.8093C31.1591 16.3373 31.0533 15.7757 31.0533 15.1245C31.0533 14.4083 31.1754 13.8223 31.4195 13.3665C31.68 12.8944 32.0056 12.52 32.3962 12.2433C32.8032 11.9665 33.259 11.7631 33.7636 11.6328C34.2845 11.4863 34.8054 11.3724 35.3263 11.291C35.8472 11.2096 36.36 11.1445 36.8646 11.0957C37.3693 11.0468 37.8169 10.9736 38.2076 10.8759C38.5983 10.7782 38.9075 10.6399 39.1354 10.4608C39.3633 10.2655 39.4691 9.98873 39.4529 9.63061C39.4529 9.25621 39.3878 8.9632 39.2575 8.75158C39.1436 8.52369 38.9808 8.35277 38.7692 8.23882C38.5738 8.10859 38.3378 8.0272 38.0611 7.99464C37.8006 7.94581 37.5158 7.92139 37.2065 7.92139C36.5228 7.92139 35.9856 8.0679 35.5949 8.36091C35.2042 8.65391 34.9763 9.14226 34.9112 9.82595H31.444ZM39.4529 12.3898C39.3064 12.52 39.1192 12.6258 38.8913 12.7072C38.6796 12.7723 38.4436 12.8293 38.1832 12.8781C37.939 12.927 37.6785 12.9677 37.4018 13.0002C37.1251 13.0328 36.8483 13.0735 36.5716 13.1223C36.3112 13.1711 36.0507 13.2362 35.7903 13.3176C35.5461 13.399 35.3263 13.513 35.131 13.6595C34.9519 13.7897 34.8054 13.9606 34.6915 14.1722C34.5775 14.3839 34.5206 14.6525 34.5206 14.978C34.5206 15.2873 34.5775 15.5478 34.6915 15.7594C34.8054 15.971 34.9601 16.1419 35.1554 16.2721C35.3507 16.3861 35.5786 16.4675 35.8391 16.5163C36.0995 16.5651 36.3681 16.5896 36.6449 16.5896C37.3286 16.5896 37.8576 16.4756 38.232 16.2477C38.6064 16.0198 38.8831 15.7512 39.0622 15.4419C39.2413 15.1164 39.3471 14.7908 39.3796 14.4653C39.4285 14.1397 39.4529 13.8792 39.4529 13.6839V12.3898ZM51.496 15.5885C50.9589 15.5885 50.5112 15.4745 50.1531 15.2466C49.795 15.0187 49.5019 14.7257 49.274 14.3676C49.0624 14.0095 48.9078 13.6106 48.8101 13.1711C48.7287 12.7153 48.688 12.2595 48.688 11.8038C48.688 11.3317 48.7369 10.884 48.8345 10.4608C48.9485 10.0213 49.1194 9.63875 49.3473 9.31318C49.5915 8.97134 49.8845 8.70275 50.2263 8.50741C50.5844 8.31207 51.0077 8.2144 51.496 8.2144C52.0658 8.2144 52.5378 8.32021 52.9122 8.53183C53.2866 8.74344 53.5878 9.02831 53.8157 9.38643C54.0436 9.74456 54.2064 10.1597 54.304 10.6317C54.4017 11.0875 54.4505 11.5759 54.4505 12.0968C54.4505 12.5526 54.3854 12.9921 54.2552 13.4153C54.1413 13.8223 53.9622 14.1885 53.718 14.5141C53.4738 14.8397 53.1646 15.1001 52.7902 15.2954C52.4158 15.4908 51.9844 15.5885 51.496 15.5885ZM57.7469 17.7616V5.94358H54.4505V7.62838H54.4017C53.9785 6.89586 53.4494 6.37496 52.8146 6.06567C52.196 5.75638 51.4716 5.60174 50.6414 5.60174C49.7624 5.60174 48.981 5.77266 48.2974 6.11451C47.6299 6.45635 47.0683 6.92028 46.6126 7.5063C46.1568 8.07604 45.8068 8.74344 45.5626 9.50852C45.3347 10.2573 45.2208 11.0387 45.2208 11.8526C45.2208 12.7153 45.3184 13.5374 45.5138 14.3187C45.7254 15.0838 46.051 15.7594 46.4905 16.3454C46.93 16.9151 47.4916 17.3709 48.1753 17.7128C48.859 18.0383 49.6729 18.2011 50.617 18.2011C51.3821 18.2011 52.1065 18.0465 52.7902 17.7372C53.4901 17.4116 54.0273 16.9151 54.4017 16.2477H54.4505V17.9081C54.4668 18.8034 54.2471 19.5441 53.7913 20.1301C53.3518 20.7161 52.6437 21.0091 51.667 21.0091C51.0484 21.0091 50.5031 20.8789 50.031 20.6184C49.5589 20.3743 49.2415 19.9266 49.0787 19.2755H45.6359C45.6847 19.9917 45.88 20.6022 46.2219 21.1068C46.58 21.6277 47.0195 22.0509 47.5404 22.3765C48.0776 22.7021 48.6636 22.9381 49.2985 23.0846C49.9496 23.2474 50.5844 23.3288 51.203 23.3288C52.6518 23.3288 53.8075 23.1334 54.6703 22.7427C55.533 22.3521 56.1923 21.8719 56.6481 21.3021C57.1039 20.7487 57.3969 20.1464 57.5271 19.4952C57.6736 18.8441 57.7469 18.2662 57.7469 17.7616ZM69.0356 10.9003H63.3952C63.4115 10.6561 63.4603 10.3794 63.5417 10.0701C63.6394 9.76083 63.794 9.46783 64.0056 9.1911C64.2335 8.91437 64.5265 8.68647 64.8846 8.50741C65.259 8.31207 65.723 8.2144 66.2764 8.2144C67.1229 8.2144 67.7496 8.4423 68.1566 8.89809C68.5798 9.35388 68.8728 10.0213 69.0356 10.9003ZM63.3952 13.0979H72.5029C72.568 12.1212 72.4866 11.1852 72.2587 10.2899C72.0308 9.39457 71.6564 8.59694 71.1355 7.89697C70.6309 7.19701 69.9797 6.64355 69.1821 6.23659C68.3845 5.81336 67.4485 5.60174 66.3741 5.60174C65.4137 5.60174 64.5347 5.77266 63.737 6.11451C62.9557 6.45635 62.2801 6.92842 61.7104 7.53071C61.1406 8.11673 60.7011 8.8167 60.3918 9.63061C60.0826 10.4445 59.9279 11.3235 59.9279 12.2677C59.9279 13.2444 60.0744 14.1397 60.3674 14.9536C60.6767 15.7675 61.1081 16.4675 61.6616 17.0535C62.215 17.6395 62.8906 18.0953 63.6882 18.4209C64.4858 18.7302 65.3811 18.8848 66.3741 18.8848C67.8066 18.8848 69.0275 18.5592 70.0367 17.9081C71.046 17.257 71.7948 16.1745 72.2831 14.6606H69.2309C69.117 15.0513 68.8077 15.4257 68.3031 15.7838C67.7985 16.1256 67.1962 16.2966 66.4962 16.2966C65.5195 16.2966 64.7707 16.0442 64.2498 15.5396C63.7289 15.035 63.444 14.2211 63.3952 13.0979ZM78.9544 5.94358V2.15889H75.4871V5.94358H73.3872V8.26323H75.4871V15.7105C75.4871 16.3454 75.5929 16.8582 75.8046 17.2488C76.0162 17.6395 76.301 17.9407 76.6592 18.1523C77.0336 18.3639 77.4568 18.5023 77.9289 18.5674C78.4172 18.6488 78.93 18.6895 79.4672 18.6895C79.809 18.6895 80.159 18.6813 80.5171 18.665C80.8752 18.6488 81.2008 18.6162 81.4938 18.5674V15.8815C81.331 15.914 81.1601 15.9384 80.9811 15.9547C80.802 15.971 80.6148 15.9791 80.4195 15.9791C79.8334 15.9791 79.4428 15.8815 79.2474 15.6861C79.0521 15.4908 78.9544 15.1001 78.9544 14.5141V8.26323H81.4938V5.94358H78.9544ZM82.997 9.82595C83.0459 9.01203 83.2493 8.33649 83.6074 7.7993C83.9656 7.26212 84.4214 6.83075 84.9748 6.50518C85.5283 6.17962 86.1469 5.95172 86.8305 5.8215C87.5305 5.67499 88.2305 5.60174 88.9304 5.60174C89.5653 5.60174 90.2083 5.65057 90.8594 5.74824C91.5105 5.82964 92.1047 6.00056 92.6419 6.26101C93.1791 6.52146 93.6186 6.88772 93.9604 7.35979C94.3023 7.81558 94.4732 8.42602 94.4732 9.1911V15.7594C94.4732 16.3291 94.5057 16.8744 94.5709 17.3953C94.636 17.9162 94.7499 18.3069 94.9127 18.5674H91.3966C91.3315 18.372 91.2745 18.1767 91.2257 17.9814C91.1931 17.7697 91.1687 17.5581 91.1524 17.3465C90.599 17.9162 89.9478 18.3151 89.199 18.543C88.4502 18.7709 87.6852 18.8848 86.9038 18.8848C86.3015 18.8848 85.7399 18.8115 85.219 18.665C84.6981 18.5185 84.2423 18.2906 83.8516 17.9814C83.4609 17.6721 83.1517 17.2814 82.9238 16.8093C82.7121 16.3373 82.6063 15.7757 82.6063 15.1245C82.6063 14.4083 82.7284 13.8223 82.9726 13.3665C83.233 12.8944 83.5586 12.52 83.9493 12.2433C84.3562 11.9665 84.812 11.7631 85.3167 11.6328C85.8376 11.4863 86.3585 11.3724 86.8794 11.291C87.4003 11.2096 87.913 11.1445 88.4177 11.0957C88.9223 11.0468 89.3699 10.9736 89.7606 10.8759C90.1513 10.7782 90.4606 10.6399 90.6885 10.4608C90.9164 10.2655 91.0222 9.98873 91.0059 9.63061C91.0059 9.25621 90.9408 8.9632 90.8106 8.75158C90.6966 8.52369 90.5338 8.35277 90.3222 8.23882C90.1269 8.10859 89.8909 8.0272 89.6141 7.99464C89.3537 7.94581 89.0688 7.92139 88.7595 7.92139C88.0758 7.92139 87.5387 8.0679 87.148 8.36091C86.7573 8.65391 86.5294 9.14226 86.4643 9.82595H82.997ZM91.0059 12.3898C90.8594 12.52 90.6722 12.6258 90.4443 12.7072C90.2327 12.7723 89.9967 12.8293 89.7362 12.8781C89.492 12.927 89.2316 12.9677 88.9548 13.0002C88.6781 13.0328 88.4014 13.0735 88.1247 13.1223C87.8642 13.1711 87.6038 13.2362 87.3433 13.3176C87.0991 13.399 86.8794 13.513 86.684 13.6595C86.505 13.7897 86.3585 13.9606 86.2445 14.1722C86.1306 14.3839 86.0736 14.6525 86.0736 14.978C86.0736 15.2873 86.1306 15.5478 86.2445 15.7594C86.3585 15.971 86.5131 16.1419 86.7085 16.2721C86.9038 16.3861 87.1317 16.4675 87.3921 16.5163C87.6526 16.5651 87.9212 16.5896 88.1979 16.5896C88.8816 16.5896 89.4106 16.4756 89.785 16.2477C90.1594 16.0198 90.4362 15.7512 90.6152 15.4419C90.7943 15.1164 90.9001 14.7908 90.9327 14.4653C90.9815 14.1397 91.0059 13.8792 91.0059 13.6839V12.3898ZM103.537 16.2966C102.984 16.2966 102.512 16.1826 102.121 15.9547C101.73 15.7268 101.413 15.4338 101.169 15.0757C100.941 14.7013 100.77 14.2699 100.656 13.7816C100.558 13.2932 100.51 12.7967 100.51 12.2921C100.51 11.7712 100.558 11.2666 100.656 10.7782C100.754 10.2899 100.917 9.8585 101.144 9.4841C101.389 9.1097 101.698 8.80856 102.072 8.58066C102.463 8.33649 102.943 8.2144 103.513 8.2144C104.066 8.2144 104.53 8.33649 104.905 8.58066C105.295 8.80856 105.613 9.11784 105.857 9.50852C106.101 9.88292 106.272 10.3143 106.37 10.8026C106.484 11.291 106.541 11.7875 106.541 12.2921C106.541 12.7967 106.492 13.2932 106.394 13.7816C106.297 14.2699 106.126 14.7013 105.881 15.0757C105.654 15.4338 105.344 15.7268 104.954 15.9547C104.579 16.1826 104.107 16.2966 103.537 16.2966ZM97.1644 5.94358V22.9869H100.632V17.0047H100.681C101.104 17.6232 101.641 18.0953 102.292 18.4209C102.96 18.7302 103.684 18.8848 104.465 18.8848C105.393 18.8848 106.199 18.7057 106.883 18.3476C107.583 17.9895 108.16 17.5093 108.616 16.907C109.088 16.3047 109.438 15.6129 109.666 14.8315C109.894 14.0502 110.008 13.2362 110.008 12.3898C110.008 11.4945 109.894 10.6399 109.666 9.82595C109.438 8.99576 109.088 8.27137 108.616 7.6528C108.144 7.03423 107.55 6.53774 106.834 6.16334C106.117 5.78894 105.263 5.60174 104.27 5.60174C103.489 5.60174 102.772 5.75638 102.121 6.06567C101.47 6.37496 100.933 6.87144 100.51 7.55513H100.461V5.94358H97.1644Z" fill="#171725"/>
<path d="M125.193 13.6307C125.977 13.6307 126.613 12.9889 126.613 12.1971C126.613 11.4054 125.977 10.7635 125.193 10.7635C124.41 10.7635 123.774 11.4054 123.774 12.1971C123.774 12.9889 124.41 13.6307 125.193 13.6307Z" fill="#008CF5"/>
<path d="M115.213 3.36439C115.946 3.36439 116.541 2.78465 116.541 2.06952C116.541 1.35439 115.946 0.774658 115.213 0.774658C114.48 0.774658 113.885 1.35439 113.885 2.06952C113.885 2.78465 114.48 3.36439 115.213 3.36439Z" fill="#008CF5"/>
<path d="M120.112 3.82687C121.073 3.82687 121.852 3.0401 121.852 2.06957C121.852 1.09903 121.073 0.312256 120.112 0.312256C119.151 0.312256 118.372 1.09903 118.372 2.06957C118.372 3.0401 119.151 3.82687 120.112 3.82687Z" fill="#008CF5"/>
<path d="M125.056 2.99434C125.562 2.99434 125.972 2.58024 125.972 2.06943C125.972 1.55862 125.562 1.14453 125.056 1.14453C124.551 1.14453 124.141 1.55862 124.141 2.06943C124.141 2.58024 124.551 2.99434 125.056 2.99434Z" fill="#008CF5"/>
<path d="M130.001 4.01178C131.063 4.01178 131.924 3.14219 131.924 2.06949C131.924 0.996792 131.063 0.127197 130.001 0.127197C128.939 0.127197 128.078 0.996792 128.078 2.06949C128.078 3.14219 128.939 4.01178 130.001 4.01178Z" fill="#008CF5"/>
<path d="M115.213 8.63633C116.098 8.63633 116.815 7.91167 116.815 7.01776C116.815 6.12383 116.098 5.39917 115.213 5.39917C114.328 5.39917 113.611 6.12383 113.611 7.01776C113.611 7.91167 114.328 8.63633 115.213 8.63633Z" fill="#008CF5"/>
<path d="M120.157 8.35884C120.891 8.35884 121.485 7.75842 121.485 7.01774C121.485 6.27708 120.891 5.67664 120.157 5.67664C119.424 5.67664 118.83 6.27708 118.83 7.01774C118.83 7.75842 119.424 8.35884 120.157 8.35884Z" fill="#008CF5"/>
<path d="M125.102 7.71131C125.481 7.71131 125.789 7.40076 125.789 7.01763C125.789 6.63453 125.481 6.32397 125.102 6.32397C124.723 6.32397 124.415 6.63453 124.415 7.01763C124.415 7.40076 124.723 7.71131 125.102 7.71131Z" fill="#008CF5"/>
<path d="M130.001 7.89623C130.456 7.89623 130.825 7.50283 130.825 7.01756C130.825 6.53229 130.456 6.13892 130.001 6.13892C129.546 6.13892 129.177 6.53229 129.177 7.01756C129.177 7.50283 129.546 7.89623 130.001 7.89623Z" fill="#008CF5"/>
<path d="M120.112 12.7985C120.516 12.7985 120.844 12.4672 120.844 12.0585C120.844 11.6499 120.516 11.3186 120.112 11.3186C119.707 11.3186 119.379 11.6499 119.379 12.0585C119.379 12.4672 119.707 12.7985 120.112 12.7985Z" fill="#008CF5"/>
<path d="M130.046 13.6308C130.931 13.6308 131.649 12.9061 131.649 12.0122C131.649 11.1183 130.931 10.3937 130.046 10.3937C129.162 10.3937 128.444 11.1183 128.444 12.0122C128.444 12.9061 129.162 13.6308 130.046 13.6308Z" fill="#008CF5"/>
<path d="M115.213 17.9778C115.744 17.9778 116.174 17.543 116.174 17.0067C116.174 16.4703 115.744 16.0355 115.213 16.0355C114.682 16.0355 114.251 16.4703 114.251 17.0067C114.251 17.543 114.682 17.9778 115.213 17.9778Z" fill="#008CF5"/>
<path d="M120.112 18.4402C120.921 18.4402 121.577 17.7983 121.577 17.0066C121.577 16.2148 120.921 15.573 120.112 15.573C119.302 15.573 118.646 16.2148 118.646 17.0066C118.646 17.7983 119.302 18.4402 120.112 18.4402Z" fill="#008CF5"/>
<path d="M125.102 17.7003C125.481 17.7003 125.789 17.3898 125.789 17.0066C125.789 16.6235 125.481 16.313 125.102 16.313C124.723 16.313 124.415 16.6235 124.415 17.0066C124.415 17.3898 124.723 17.7003 125.102 17.7003Z" fill="#008CF5"/>
<path d="M130.001 18.3479C130.709 18.3479 131.283 17.7474 131.283 17.0068C131.283 16.2661 130.709 15.6656 130.001 15.6656C129.293 15.6656 128.719 16.2661 128.719 17.0068C128.719 17.7474 129.293 18.3479 130.001 18.3479Z" fill="#008CF5"/>
</svg>
