<svg width="117" height="24" viewBox="0 0 117 24" fill="none" xmlns="http://www.w3.org/2000/svg">
<path d="M100.213 12.7059C100.592 12.7059 100.9 12.3954 100.9 12.0123C100.9 11.6292 100.592 11.3186 100.213 11.3186C99.8336 11.3186 99.5261 11.6292 99.5261 12.0123C99.5261 12.3954 99.8336 12.7059 100.213 12.7059Z" fill="#008CF5"/>
<path d="M3.71238 12.7805H0.00093913C-0.0153391 13.8548 0.18 14.7827 0.586956 15.564C0.993913 16.3454 1.53923 16.9884 2.22292 17.493C2.92289 17.9976 3.72052 18.3639 4.61583 18.5918C5.52741 18.836 6.46341 18.9581 7.42383 18.9581C8.61214 18.9581 9.65395 18.8197 10.5493 18.543C11.4608 18.2662 12.2178 17.8837 12.8201 17.3953C13.4386 16.8907 13.9026 16.2966 14.2119 15.6129C14.5211 14.9292 14.6758 14.1885 14.6758 13.3909C14.6758 12.4142 14.4642 11.6166 14.0409 10.998C13.634 10.3631 13.1456 9.8585 12.5759 9.4841C12.0062 9.1097 11.4283 8.84111 10.8423 8.67833C10.2725 8.49927 9.82487 8.37718 9.4993 8.31207C8.40866 8.03534 7.52149 7.80744 6.83781 7.62838C6.1704 7.44932 5.64136 7.27026 5.25068 7.0912C4.87628 6.91214 4.62396 6.7168 4.49374 6.50518C4.36351 6.29357 4.2984 6.01684 4.2984 5.67499C4.2984 5.30059 4.37979 4.9913 4.54257 4.74713C4.70536 4.50296 4.90883 4.29948 5.15301 4.1367C5.41346 3.97391 5.69833 3.85997 6.00762 3.79485C6.3169 3.72974 6.62619 3.69718 6.93548 3.69718C7.40755 3.69718 7.83892 3.73788 8.2296 3.81927C8.63655 3.90066 8.99468 4.03903 9.30396 4.23437C9.61325 4.42971 9.85742 4.6983 10.0365 5.04014C10.2318 5.38198 10.3458 5.81336 10.3783 6.33426H14.0898C14.0898 5.32501 13.8944 4.4704 13.5038 3.77044C13.1294 3.05419 12.6166 2.46817 11.9655 2.01238C11.3143 1.55659 10.5655 1.23103 9.71906 1.03569C8.88887 0.82407 8.01798 0.718262 7.1064 0.718262C6.32504 0.718262 5.54369 0.82407 4.76233 1.03569C3.98097 1.24731 3.28101 1.57287 2.66243 2.01238C2.04386 2.4519 1.53923 3.00536 1.14856 3.67277C0.774156 4.3239 0.586956 5.09711 0.586956 5.99242C0.586956 6.79005 0.733461 7.47374 1.02647 8.04348C1.33576 8.59694 1.73457 9.06087 2.22292 9.43527C2.71127 9.80967 3.26473 10.119 3.8833 10.3631C4.50188 10.591 5.13673 10.7864 5.78786 10.9491C6.42271 11.1282 7.04943 11.291 7.668 11.4375C8.28657 11.584 8.84003 11.7549 9.32838 11.9503C9.81673 12.1456 10.2074 12.3898 10.5004 12.6828C10.8097 12.9758 10.9643 13.3583 10.9643 13.8304C10.9643 14.2699 10.8504 14.6362 10.6225 14.9292C10.3946 15.2059 10.1097 15.4257 9.76789 15.5885C9.42605 15.7512 9.05979 15.8652 8.66911 15.9303C8.27843 15.9791 7.91217 16.0035 7.57033 16.0035C7.0657 16.0035 6.57736 15.9466 6.10529 15.8326C5.63322 15.7024 5.21812 15.5152 4.86 15.271C4.51816 15.0106 4.24143 14.6769 4.02981 14.2699C3.81819 13.863 3.71238 13.3665 3.71238 12.7805ZM16.444 9.82595C16.4928 9.01203 16.6963 8.33649 17.0544 7.7993C17.4125 7.26212 17.8683 6.83075 18.4218 6.50518C18.9752 6.17962 19.5938 5.95172 20.2775 5.8215C20.9775 5.67499 21.6774 5.60174 22.3774 5.60174C23.0122 5.60174 23.6552 5.65057 24.3064 5.74824C24.9575 5.82964 25.5517 6.00056 26.0889 6.26101C26.6261 6.52146 27.0656 6.88772 27.4074 7.35979C27.7493 7.81558 27.9202 8.42602 27.9202 9.1911V15.7594C27.9202 16.3291 27.9527 16.8744 28.0179 17.3953C28.083 17.9162 28.1969 18.3069 28.3597 18.5674H24.8435C24.7784 18.372 24.7215 18.1767 24.6726 17.9814C24.6401 17.7697 24.6157 17.5581 24.5994 17.3465C24.0459 17.9162 23.3948 18.3151 22.646 18.543C21.8972 18.7709 21.1321 18.8848 20.3507 18.8848C19.7485 18.8848 19.1869 18.8115 18.6659 18.665C18.145 18.5185 17.6893 18.2906 17.2986 17.9814C16.9079 17.6721 16.5986 17.2814 16.3707 16.8093C16.1591 16.3373 16.0533 15.7757 16.0533 15.1245C16.0533 14.4083 16.1754 13.8223 16.4195 13.3665C16.68 12.8944 17.0056 12.52 17.3962 12.2433C17.8032 11.9665 18.259 11.7631 18.7636 11.6328C19.2845 11.4863 19.8054 11.3724 20.3263 11.291C20.8472 11.2096 21.36 11.1445 21.8646 11.0957C22.3693 11.0468 22.8169 10.9736 23.2076 10.8759C23.5983 10.7782 23.9075 10.6399 24.1354 10.4608C24.3633 10.2655 24.4691 9.98873 24.4529 9.63061C24.4529 9.25621 24.3878 8.9632 24.2575 8.75158C24.1436 8.52369 23.9808 8.35277 23.7692 8.23882C23.5738 8.10859 23.3378 8.0272 23.0611 7.99464C22.8006 7.94581 22.5158 7.92139 22.2065 7.92139C21.5228 7.92139 20.9856 8.0679 20.5949 8.36091C20.2042 8.65391 19.9763 9.14226 19.9112 9.82595H16.444ZM24.4529 12.3898C24.3064 12.52 24.1192 12.6258 23.8913 12.7072C23.6796 12.7723 23.4436 12.8293 23.1832 12.8781C22.939 12.927 22.6785 12.9677 22.4018 13.0002C22.1251 13.0328 21.8483 13.0735 21.5716 13.1223C21.3112 13.1711 21.0507 13.2362 20.7903 13.3176C20.5461 13.399 20.3263 13.513 20.131 13.6595C19.9519 13.7897 19.8054 13.9606 19.6915 14.1722C19.5775 14.3839 19.5206 14.6525 19.5206 14.978C19.5206 15.2873 19.5775 15.5478 19.6915 15.7594C19.8054 15.971 19.9601 16.1419 20.1554 16.2721C20.3507 16.3861 20.5786 16.4675 20.8391 16.5163C21.0995 16.5651 21.3681 16.5896 21.6449 16.5896C22.3286 16.5896 22.8576 16.4756 23.232 16.2477C23.6064 16.0198 23.8831 15.7512 24.0622 15.4419C24.2413 15.1164 24.3471 14.7908 24.3796 14.4653C24.4285 14.1397 24.4529 13.8792 24.4529 13.6839V12.3898ZM36.496 15.5885C35.9589 15.5885 35.5112 15.4745 35.1531 15.2466C34.795 15.0187 34.5019 14.7257 34.274 14.3676C34.0624 14.0095 33.9078 13.6106 33.8101 13.1711C33.7287 12.7153 33.688 12.2595 33.688 11.8038C33.688 11.3317 33.7369 10.884 33.8345 10.4608C33.9485 10.0213 34.1194 9.63875 34.3473 9.31318C34.5915 8.97134 34.8845 8.70275 35.2263 8.50741C35.5844 8.31207 36.0077 8.2144 36.496 8.2144C37.0658 8.2144 37.5378 8.32021 37.9122 8.53183C38.2866 8.74344 38.5878 9.02831 38.8157 9.38643C39.0436 9.74456 39.2064 10.1597 39.304 10.6317C39.4017 11.0875 39.4505 11.5759 39.4505 12.0968C39.4505 12.5526 39.3854 12.9921 39.2552 13.4153C39.1413 13.8223 38.9622 14.1885 38.718 14.5141C38.4738 14.8397 38.1646 15.1001 37.7902 15.2954C37.4158 15.4908 36.9844 15.5885 36.496 15.5885ZM42.7469 17.7616V5.94358H39.4505V7.62838H39.4017C38.9785 6.89586 38.4494 6.37496 37.8146 6.06567C37.196 5.75638 36.4716 5.60174 35.6414 5.60174C34.7624 5.60174 33.981 5.77266 33.2974 6.11451C32.6299 6.45635 32.0683 6.92028 31.6126 7.5063C31.1568 8.07604 30.8068 8.74344 30.5626 9.50852C30.3347 10.2573 30.2208 11.0387 30.2208 11.8526C30.2208 12.7153 30.3184 13.5374 30.5138 14.3187C30.7254 15.0838 31.051 15.7594 31.4905 16.3454C31.93 16.9151 32.4916 17.3709 33.1753 17.7128C33.859 18.0383 34.6729 18.2011 35.617 18.2011C36.3821 18.2011 37.1065 18.0465 37.7902 17.7372C38.4901 17.4116 39.0273 16.9151 39.4017 16.2477H39.4505V17.9081C39.4668 18.8034 39.2471 19.5441 38.7913 20.1301C38.3518 20.7161 37.6437 21.0091 36.667 21.0091C36.0484 21.0091 35.5031 20.8789 35.031 20.6184C34.5589 20.3743 34.2415 19.9266 34.0787 19.2755H30.6359C30.6847 19.9917 30.88 20.6022 31.2219 21.1068C31.58 21.6277 32.0195 22.0509 32.5404 22.3765C33.0776 22.7021 33.6636 22.9381 34.2985 23.0846C34.9496 23.2474 35.5844 23.3288 36.203 23.3288C37.6518 23.3288 38.8075 23.1334 39.6703 22.7427C40.533 22.3521 41.1923 21.8719 41.6481 21.3021C42.1039 20.7487 42.3969 20.1464 42.5271 19.4952C42.6736 18.8441 42.7469 18.2662 42.7469 17.7616ZM54.0356 10.9003H48.3952C48.4115 10.6561 48.4603 10.3794 48.5417 10.0701C48.6394 9.76083 48.794 9.46783 49.0056 9.1911C49.2335 8.91437 49.5265 8.68647 49.8846 8.50741C50.259 8.31207 50.723 8.2144 51.2764 8.2144C52.1229 8.2144 52.7496 8.4423 53.1566 8.89809C53.5798 9.35388 53.8728 10.0213 54.0356 10.9003ZM48.3952 13.0979H57.5029C57.568 12.1212 57.4866 11.1852 57.2587 10.2899C57.0308 9.39457 56.6564 8.59694 56.1355 7.89697C55.6309 7.19701 54.9797 6.64355 54.1821 6.23659C53.3845 5.81336 52.4485 5.60174 51.3741 5.60174C50.4137 5.60174 49.5347 5.77266 48.737 6.11451C47.9557 6.45635 47.2801 6.92842 46.7104 7.53071C46.1406 8.11673 45.7011 8.8167 45.3918 9.63061C45.0826 10.4445 44.9279 11.3235 44.9279 12.2677C44.9279 13.2444 45.0744 14.1397 45.3674 14.9536C45.6767 15.7675 46.1081 16.4675 46.6616 17.0535C47.215 17.6395 47.8906 18.0953 48.6882 18.4209C49.4858 18.7302 50.3811 18.8848 51.3741 18.8848C52.8066 18.8848 54.0275 18.5592 55.0367 17.9081C56.046 17.257 56.7948 16.1745 57.2831 14.6606H54.2309C54.117 15.0513 53.8077 15.4257 53.3031 15.7838C52.7985 16.1256 52.1962 16.2966 51.4962 16.2966C50.5195 16.2966 49.7707 16.0442 49.2498 15.5396C48.7289 15.035 48.444 14.2211 48.3952 13.0979ZM63.9544 5.94358V2.15889H60.4871V5.94358H58.3872V8.26323H60.4871V15.7105C60.4871 16.3454 60.5929 16.8582 60.8046 17.2488C61.0162 17.6395 61.301 17.9407 61.6592 18.1523C62.0336 18.3639 62.4568 18.5023 62.9289 18.5674C63.4172 18.6488 63.93 18.6895 64.4672 18.6895C64.809 18.6895 65.159 18.6813 65.5171 18.665C65.8752 18.6488 66.2008 18.6162 66.4938 18.5674V15.8815C66.331 15.914 66.1601 15.9384 65.9811 15.9547C65.802 15.971 65.6148 15.9791 65.4195 15.9791C64.8334 15.9791 64.4428 15.8815 64.2474 15.6861C64.0521 15.4908 63.9544 15.1001 63.9544 14.5141V8.26323H66.4938V5.94358H63.9544ZM67.997 9.82595C68.0459 9.01203 68.2493 8.33649 68.6074 7.7993C68.9656 7.26212 69.4214 6.83075 69.9748 6.50518C70.5283 6.17962 71.1469 5.95172 71.8305 5.8215C72.5305 5.67499 73.2305 5.60174 73.9304 5.60174C74.5653 5.60174 75.2083 5.65057 75.8594 5.74824C76.5105 5.82964 77.1047 6.00056 77.6419 6.26101C78.1791 6.52146 78.6186 6.88772 78.9604 7.35979C79.3023 7.81558 79.4732 8.42602 79.4732 9.1911V15.7594C79.4732 16.3291 79.5057 16.8744 79.5709 17.3953C79.636 17.9162 79.7499 18.3069 79.9127 18.5674H76.3966C76.3315 18.372 76.2745 18.1767 76.2257 17.9814C76.1931 17.7697 76.1687 17.5581 76.1524 17.3465C75.599 17.9162 74.9478 18.3151 74.199 18.543C73.4502 18.7709 72.6852 18.8848 71.9038 18.8848C71.3015 18.8848 70.7399 18.8115 70.219 18.665C69.6981 18.5185 69.2423 18.2906 68.8516 17.9814C68.4609 17.6721 68.1517 17.2814 67.9238 16.8093C67.7121 16.3373 67.6063 15.7757 67.6063 15.1245C67.6063 14.4083 67.7284 13.8223 67.9726 13.3665C68.233 12.8944 68.5586 12.52 68.9493 12.2433C69.3562 11.9665 69.812 11.7631 70.3167 11.6328C70.8376 11.4863 71.3585 11.3724 71.8794 11.291C72.4003 11.2096 72.913 11.1445 73.4177 11.0957C73.9223 11.0468 74.3699 10.9736 74.7606 10.8759C75.1513 10.7782 75.4606 10.6399 75.6885 10.4608C75.9164 10.2655 76.0222 9.98873 76.0059 9.63061C76.0059 9.25621 75.9408 8.9632 75.8106 8.75158C75.6966 8.52369 75.5338 8.35277 75.3222 8.23882C75.1269 8.10859 74.8909 8.0272 74.6141 7.99464C74.3537 7.94581 74.0688 7.92139 73.7595 7.92139C73.0758 7.92139 72.5387 8.0679 72.148 8.36091C71.7573 8.65391 71.5294 9.14226 71.4643 9.82595H67.997ZM76.0059 12.3898C75.8594 12.52 75.6722 12.6258 75.4443 12.7072C75.2327 12.7723 74.9967 12.8293 74.7362 12.8781C74.492 12.927 74.2316 12.9677 73.9548 13.0002C73.6781 13.0328 73.4014 13.0735 73.1247 13.1223C72.8642 13.1711 72.6038 13.2362 72.3433 13.3176C72.0991 13.399 71.8794 13.513 71.684 13.6595C71.505 13.7897 71.3585 13.9606 71.2445 14.1722C71.1306 14.3839 71.0736 14.6525 71.0736 14.978C71.0736 15.2873 71.1306 15.5478 71.2445 15.7594C71.3585 15.971 71.5131 16.1419 71.7085 16.2721C71.9038 16.3861 72.1317 16.4675 72.3921 16.5163C72.6526 16.5651 72.9212 16.5896 73.1979 16.5896C73.8816 16.5896 74.4106 16.4756 74.785 16.2477C75.1594 16.0198 75.4362 15.7512 75.6152 15.4419C75.7943 15.1164 75.9001 14.7908 75.9327 14.4653C75.9815 14.1397 76.0059 13.8792 76.0059 13.6839V12.3898ZM88.5374 16.2966C87.9839 16.2966 87.5118 16.1826 87.1212 15.9547C86.7305 15.7268 86.4131 15.4338 86.1689 15.0757C85.941 14.7013 85.7701 14.2699 85.6561 13.7816C85.5585 13.2932 85.5096 12.7967 85.5096 12.2921C85.5096 11.7712 85.5585 11.2666 85.6561 10.7782C85.7538 10.2899 85.9166 9.8585 86.1445 9.4841C86.3886 9.1097 86.6979 8.80856 87.0723 8.58066C87.463 8.33649 87.9432 8.2144 88.513 8.2144C89.0664 8.2144 89.5303 8.33649 89.9048 8.58066C90.2954 8.80856 90.6129 9.11784 90.857 9.50852C91.1012 9.88292 91.2721 10.3143 91.3698 10.8026C91.4837 11.291 91.5407 11.7875 91.5407 12.2921C91.5407 12.7967 91.4919 13.2932 91.3942 13.7816C91.2965 14.2699 91.1256 14.7013 90.8814 15.0757C90.6535 15.4338 90.3443 15.7268 89.9536 15.9547C89.5792 16.1826 89.1071 16.2966 88.5374 16.2966ZM82.1644 5.94358V22.9869H85.6317V17.0047H85.6805C86.1038 17.6232 86.641 18.0953 87.2921 18.4209C87.9595 18.7302 88.6839 18.8848 89.4652 18.8848C90.3931 18.8848 91.1989 18.7057 91.8826 18.3476C92.5825 17.9895 93.1604 17.5093 93.6162 16.907C94.0883 16.3047 94.4382 15.6129 94.6661 14.8315C94.894 14.0502 95.008 13.2362 95.008 12.3898C95.008 11.4945 94.894 10.6399 94.6661 9.82595C94.4382 8.99576 94.0883 8.27137 93.6162 7.6528C93.1441 7.03423 92.55 6.53774 91.8337 6.16334C91.1175 5.78894 90.2629 5.60174 89.2699 5.60174C88.4885 5.60174 87.7723 5.75638 87.1212 6.06567C86.47 6.37496 85.9329 6.87144 85.5096 7.55513H85.4608V5.94358H82.1644Z" fill="#171725"/>
<path d="M110.193 13.6307C110.977 13.6307 111.613 12.9889 111.613 12.1971C111.613 11.4054 110.977 10.7635 110.193 10.7635C109.41 10.7635 108.774 11.4054 108.774 12.1971C108.774 12.9889 109.41 13.6307 110.193 13.6307Z" fill="#008CF5"/>
<path d="M100.213 3.36439C100.946 3.36439 101.541 2.78465 101.541 2.06952C101.541 1.35439 100.946 0.774658 100.213 0.774658C99.4797 0.774658 98.8853 1.35439 98.8853 2.06952C98.8853 2.78465 99.4797 3.36439 100.213 3.36439Z" fill="#008CF5"/>
<path d="M105.112 3.82687C106.073 3.82687 106.852 3.0401 106.852 2.06957C106.852 1.09903 106.073 0.312256 105.112 0.312256C104.151 0.312256 103.372 1.09903 103.372 2.06957C103.372 3.0401 104.151 3.82687 105.112 3.82687Z" fill="#008CF5"/>
<path d="M110.056 2.99434C110.562 2.99434 110.972 2.58024 110.972 2.06943C110.972 1.55862 110.562 1.14453 110.056 1.14453C109.551 1.14453 109.141 1.55862 109.141 2.06943C109.141 2.58024 109.551 2.99434 110.056 2.99434Z" fill="#008CF5"/>
<path d="M115.001 4.01178C116.063 4.01178 116.924 3.14219 116.924 2.06949C116.924 0.996792 116.063 0.127197 115.001 0.127197C113.939 0.127197 113.078 0.996792 113.078 2.06949C113.078 3.14219 113.939 4.01178 115.001 4.01178Z" fill="#008CF5"/>
<path d="M100.213 8.63633C101.098 8.63633 101.815 7.91167 101.815 7.01776C101.815 6.12383 101.098 5.39917 100.213 5.39917C99.3281 5.39917 98.6106 6.12383 98.6106 7.01776C98.6106 7.91167 99.3281 8.63633 100.213 8.63633Z" fill="#008CF5"/>
<path d="M105.157 8.35884C105.891 8.35884 106.485 7.75842 106.485 7.01774C106.485 6.27708 105.891 5.67664 105.157 5.67664C104.424 5.67664 103.83 6.27708 103.83 7.01774C103.83 7.75842 104.424 8.35884 105.157 8.35884Z" fill="#008CF5"/>
<path d="M110.102 7.71131C110.481 7.71131 110.789 7.40076 110.789 7.01763C110.789 6.63453 110.481 6.32397 110.102 6.32397C109.723 6.32397 109.415 6.63453 109.415 7.01763C109.415 7.40076 109.723 7.71131 110.102 7.71131Z" fill="#008CF5"/>
<path d="M115.001 7.89623C115.456 7.89623 115.825 7.50283 115.825 7.01756C115.825 6.53229 115.456 6.13892 115.001 6.13892C114.546 6.13892 114.177 6.53229 114.177 7.01756C114.177 7.50283 114.546 7.89623 115.001 7.89623Z" fill="#008CF5"/>
<path d="M105.112 12.7985C105.516 12.7985 105.844 12.4672 105.844 12.0585C105.844 11.6499 105.516 11.3186 105.112 11.3186C104.707 11.3186 104.379 11.6499 104.379 12.0585C104.379 12.4672 104.707 12.7985 105.112 12.7985Z" fill="#008CF5"/>
<path d="M115.046 13.6308C115.931 13.6308 116.649 12.9061 116.649 12.0122C116.649 11.1183 115.931 10.3937 115.046 10.3937C114.162 10.3937 113.444 11.1183 113.444 12.0122C113.444 12.9061 114.162 13.6308 115.046 13.6308Z" fill="#008CF5"/>
<path d="M100.213 17.9778C100.744 17.9778 101.174 17.543 101.174 17.0067C101.174 16.4703 100.744 16.0355 100.213 16.0355C99.6818 16.0355 99.2515 16.4703 99.2515 17.0067C99.2515 17.543 99.6818 17.9778 100.213 17.9778Z" fill="#008CF5"/>
<path d="M105.112 18.4402C105.921 18.4402 106.577 17.7983 106.577 17.0066C106.577 16.2148 105.921 15.573 105.112 15.573C104.302 15.573 103.646 16.2148 103.646 17.0066C103.646 17.7983 104.302 18.4402 105.112 18.4402Z" fill="#008CF5"/>
<path d="M110.102 17.7003C110.481 17.7003 110.789 17.3898 110.789 17.0066C110.789 16.6235 110.481 16.313 110.102 16.313C109.723 16.313 109.415 16.6235 109.415 17.0066C109.415 17.3898 109.723 17.7003 110.102 17.7003Z" fill="#008CF5"/>
<path d="M115.001 18.3479C115.709 18.3479 116.283 17.7474 116.283 17.0068C116.283 16.2661 115.709 15.6656 115.001 15.6656C114.293 15.6656 113.719 16.2661 113.719 17.0068C113.719 17.7474 114.293 18.3479 115.001 18.3479Z" fill="#008CF5"/>
</svg>
